<mxfile host="app.diagrams.net" modified="2022-06-27T11:04:00.672Z" agent="5.0 (Macintosh; Intel Mac OS X 10_15_7) AppleWebKit/537.36 (KHTML, like Gecko) Chrome/102.0.0.0 Safari/537.36" etag="2KDJYKsn7UeaahqvszEI" version="20.0.1" type="github">
  <diagram id="LPxtkybAB340XdUwFbBS" name="Page-1">
    <mxGraphModel dx="1186" dy="738" grid="1" gridSize="10" guides="1" tooltips="1" connect="1" arrows="1" fold="1" page="1" pageScale="1" pageWidth="827" pageHeight="1169" math="0" shadow="0">
      <root>
        <mxCell id="0" />
        <mxCell id="1" parent="0" />
        <mxCell id="MSqBDN_7sposjBvbjQJm-1" value="" style="rounded=0;whiteSpace=wrap;html=1;fontColor=#3399FF;" vertex="1" parent="1">
          <mxGeometry x="200" y="180" width="120" height="60" as="geometry" />
        </mxCell>
      </root>
    </mxGraphModel>
  </diagram>
</mxfile>
